<?xml version="1.0" standalone="no"?>
<!DOCTYPE svg PUBLIC "-//W3C//DTD SVG 1.1//EN" "http://www.w3.org/Graphics/SVG/1.1/DTD/svg11.dtd" >
<svg>
<metadata>
Created by FontForge 20090622 at Thu Nov 15 04:48:11 2012
 By ffonts
Copyright (c) 2011 by Santiago Orozco(hi@typemade.mx) with reserved name Antic Slab
</metadata>
<defs>
<font id="AnticSlab-Regular" horiz-adv-x="506" >
  <font-face 
    font-family="Antic Slab"
    font-weight="400"
    font-stretch="normal"
    units-per-em="1000"
    panose-1="0 0 0 0 0 0 0 0 0 0"
    ascent="800"
    descent="-200"
    x-height="500"
    cap-height="700"
    bbox="-30 -250 973 940"
    underline-thickness="50"
    underline-position="-50"
    unicode-range="U+0020-U+25CA"
  />
<missing-glyph horiz-adv-x="299" 
 />
    <glyph glyph-name=".notdef" horiz-adv-x="299" 
 />
    <glyph glyph-name=".null" horiz-adv-x="0" 
 />
    <glyph glyph-name="nonmarkingreturn" horiz-adv-x="333" 
 />
    <glyph glyph-name="space" unicode=" " horiz-adv-x="299" 
 />
    <glyph glyph-name="exclam" unicode="!" horiz-adv-x="282" 
d="M172 129h-60v566l60 5v-571zM106 35q0 14 10.5 24.5t24.5 10.5t24.5 -10.5t10.5 -24.5t-10.5 -24.5t-24.5 -10.5t-24.5 10.5t-10.5 24.5z" />
    <glyph glyph-name="quotedbl" unicode="&#x22;" horiz-adv-x="358" 
d="M80 600q-1 6 -1 11.5t-1 13.5t-1.5 18t-0.5 21q-2 35 -2 54l54 1q-10 -57 -10 -116zM200 600q-1 6 -1 11.5t-1 13.5t-1.5 18t-0.5 21q-2 35 -2 54l54 1q-10 -57 -10 -116z" />
    <glyph glyph-name="numbersign" unicode="#" horiz-adv-x="600" 
d="M63 458l6 58h122l29 163h60l-29 -163h142l29 163h60l-29 -163h107l-6 -58h-111l-30 -171h107l-6 -58h-111l-32 -185h-60l32 185h-142l-32 -185h-60l32 185h-118l6 58h122l30 171h-118zM241 458l-30 -171h142l30 171h-142z" />
    <glyph glyph-name="dollar" unicode="$" horiz-adv-x="583" 
d="M306 547h-5v-213q116 -33 149 -67q39 -41 39 -110t-53 -111.5t-135 -48.5v-97h-35v96q-140 6 -201 56l21 45q26 -23 77.5 -35.5t100.5 -12.5h2v239q-114 32 -144 61q-38 36 -38 97.5t49 104t133 48.5v101h35v-100q61 -2 129 -14l22 -4l-12 -51q-96 16 -134 16zM429 161
q0 48 -33 73.5t-95 43.5v-227q128 14 128 110zM179.5 511.5q-30.5 -25.5 -30.5 -66t30 -62.5t87 -39v200q-56 -7 -86.5 -32.5z" />
    <glyph glyph-name="percent" unicode="%" horiz-adv-x="653" 
d="M498 500h60l-378 -500h-60zM80 400q0 49 35 84.5t85 35.5q120 0 120 -120q0 -50 -35.5 -85t-84.5 -35q-120 0 -120 120zM143 458q-23 -24 -23 -61t22 -58t56.5 -21t58 24t23.5 61t-22.5 58t-57 21t-57.5 -24zM370 115q0 49 35 84.5t85 35.5q120 0 120 -120
q0 -50 -35.5 -85t-84.5 -35q-120 0 -120 120zM433 173q-23 -24 -23 -61t22 -58t56.5 -21t58 24t23.5 61t-22.5 58t-57 21t-57.5 -24z" />
    <glyph glyph-name="ampersand" unicode="&#x26;" horiz-adv-x="861" 
d="M338 -4q-267 0 -267 233q0 101 49 158t134 74q-55 86 -55 139.5t44.5 101t132.5 47.5q48 0 78 -11.5t48 -21.5t26 -17q31 -25 32 -25l-36 -40q-73 60 -144 60q-69 0 -94 -40q-22 -32 -22 -61q0 -68 99 -185.5t237 -244.5q46 52 72 125q0 12 -12 14h-62q-1 6 -1 50l210 1
q0 -1 1 -25v-25h-70q-26 -101 -94 -180l82 -71h82l-1 -52l-109 -1q-29 24 -96 84q-104 -87 -264 -87zM186 99.5q50 -48.5 167.5 -48.5t205.5 71q-177 163 -271 289q-72 -8 -112 -54t-40 -127.5t50 -130z" />
    <glyph glyph-name="quotesingle" unicode="'" horiz-adv-x="200" 
d="M64 587l1 74q0 41 -1 54l54 3q0 -19 -1 -41t-1.5 -39t-1.5 -31.5t-2 -31.5l-48 -2v14z" />
    <glyph glyph-name="parenleft" unicode="(" horiz-adv-x="346" 
d="M137 418.5q-8 -68.5 -8 -160.5t13 -175t29.5 -127.5t39 -77t33.5 -40.5q10 -8 23 -16l-32 -22q-9 4 -13 5.5t-24.5 16.5t-34.5 33.5t-34.5 56t-32.5 83.5q-32 116 -32 275q0 175 34 284q32 102 70 143q39 43 58 49l9 4l32 -29q-9 -3 -25 -19t-29.5 -34.5t-29 -55t-27 -81
t-19.5 -113z" />
    <glyph glyph-name="parenright" unicode=")" horiz-adv-x="400" 
d="M257.5 432q9.5 -74 9.5 -160.5t-9.5 -158.5t-22 -118t-33 -83.5t-34.5 -56t-34.5 -33.5t-24.5 -16.5t-13 -5.5l-32 22q-64 178 2 1q78 45 113 204q23 103 23 228t-14 212t-34.5 132.5t-41 75t-34.5 37.5l-14 9l32 29q12 -3 31.5 -18.5t36 -34.5t36 -57t34 -86t24 -122z
" />
    <glyph glyph-name="asterisk" unicode="*" horiz-adv-x="556" 
d="M274 736l48 -1q0 -47 -8 -122l113 43l16 -47q-46 -16 -118 -31l75 -95l-39 -29q-29 38 -68 105q-54 -79 -68 -102l-39 28l78 96l-116 32l14 47q58 -20 116 -47q-3 113 -4 123z" />
    <glyph glyph-name="plus" unicode="+" horiz-adv-x="799" 
d="M146 290h220v210h60v-210h220v-58h-220v-232h-60v232h-220v58z" />
    <glyph glyph-name="comma" unicode="," horiz-adv-x="110" 
d="M33 65l54 -1q0 -55 -28 -167l-46 2l5 34q15 91 15 110v22z" />
    <glyph glyph-name="hyphen" unicode="-" horiz-adv-x="600" 
d="M146 290h302v-58h-302v58z" />
    <glyph glyph-name="period" unicode="." horiz-adv-x="143" 
d="M34 29q0 19 9.5 30t25.5 11q35 0 35 -41q0 -17 -10 -27t-25 -10q-35 0 -35 37z" />
    <glyph glyph-name="slash" unicode="/" horiz-adv-x="600" 
d="M430 749h60l-318 -949h-60z" />
    <glyph glyph-name="zero" unicode="0" horiz-adv-x="700" 
d="M211 554.5q-58 -78.5 -58 -219t56 -212.5t139.5 -72t141 78.5t57.5 217.5t-56.5 212.5t-139 73.5t-140.5 -78.5zM160 81.5q-75 85.5 -75 252.5t77 260.5t189.5 93.5t188 -87.5t75.5 -252.5t-77 -258.5t-190 -93.5t-188 85.5z" />
    <glyph glyph-name="one" unicode="1" horiz-adv-x="488" 
d="M78 577l-1 49l160 36h63v-662h-63v613z" />
    <glyph glyph-name="two" unicode="2" horiz-adv-x="572" 
d="M296 666q39 0 70 -9t60 -28q61 -41 61 -142q0 -73 -39 -137q-20 -35 -39 -62t-54 -63l-56 -56.5l-63 -59l-59 -54.5h283l15 125l49 -5l-15 -175h-408l-11 55q170 165 205 203q125 135 125 231q0 39 -22 75q-13 21 -40.5 33.5t-63 12.5t-74.5 -11t-62 -22l-23 -11l-25 47
q41 22 94 37.5t92 15.5z" />
    <glyph glyph-name="three" unicode="3" horiz-adv-x="560" 
d="M190 324v45q55 0 83 -1q55 10 95 46q17 14 29 40.5t12 62.5t-26.5 64.5t-85.5 28.5q-36 0 -76.5 -11t-62.5 -22l-23 -11l-17 50q31 18 85.5 34t98.5 16q77 0 126 -37t49 -107q0 -113 -119 -164q123 -30 123 -157q0 -104 -71 -154t-198 -50q-66 0 -125 16l16 52
q40 -13 103 -13q100 0 153.5 36.5t53.5 109.5q0 64 -37 89q-20 13 -37.5 21t-48.5 12q-40 4 -100 4z" />
    <glyph glyph-name="four" unicode="4" horiz-adv-x="601" 
d="M402 140h-300l-17 55l317 467h68v-467h46l1 -55h-47v-91l68 -4v-23l-1 -22l-200 -1q0 39 1 44l52 7q10 1 12 13v77zM402 195v367l-250 -367h250z" />
    <glyph glyph-name="five" unicode="5" horiz-adv-x="475" 
d="M421 201q0 -104 -71 -154t-198 -50q-66 0 -125 16l16 52q40 -13 103 -13q100 0 153.5 36.5t53.5 109.5q0 64 -39 89q-20 13 -38.5 21t-51.5 12q-41 4 -104 4h-11l20 338h286l13 -144l-50 -8l-12 97h-174l-14 -238q138 0 192 -43q21 -18 36 -49.5t15 -75.5z" />
    <glyph glyph-name="six" unicode="6" horiz-adv-x="601" 
d="M437 326.5q44 -44.5 44 -131.5t-59.5 -143t-151 -56t-146 46t-54.5 145q0 58 19 115t47 100.5t68 85.5t73 69t73 53q52 34 87 52l27 -48q-1 -1 -19 -11l-37 -21.5t-48 -32.5t-56 -43q-60 -51 -104 -117q84 -2 121 -7q72 -11 116 -55.5zM170 334q-32 -70 -32 -144.5
t39 -106.5t97 -32t98.5 41.5t40.5 101.5t-29 93t-68.5 39t-145.5 8z" />
    <glyph glyph-name="seven" unicode="7" horiz-adv-x="564" 
d="M157 0l252 607h-270l-12 -97l-49 8l12 144h371l14 -55l-252 -607h-66z" />
    <glyph glyph-name="eight" unicode="8" horiz-adv-x="613" 
d="M532 173q0 -41 -17.5 -74t-40 -53.5t-66 -35t-100.5 -14.5t-100 14.5t-65.5 35t-36.5 46.5q-20 41 -20 81q0 75 28.5 120.5t84.5 88.5q-75 41 -75 136q0 79 52 113.5t132 34.5q186 0 186 -148q0 -90 -77 -151q54 -23 84.5 -67.5t30.5 -126.5zM151 173q0 -35 15 -60
t33.5 -37t44.5 -18q34 -9 74.5 -9t75.5 15t49 38q24 39 24 74t-11 63.5t-25.5 45t-41 30.5t-46.5 20t-53.5 15t-50.5 15q-88 -74 -88 -192zM417 471q9 25 9 44.5t-1 29.5q-18 68 -117 68q-38 0 -64.5 -11t-37.5 -28q-17 -28 -17 -54t8.5 -45.5t18.5 -31t32.5 -22t36 -14.5
t44.5 -12t44 -12q35 35 44 88z" />
    <glyph glyph-name="nine" unicode="9" horiz-adv-x="601" 
d="M114 331.5q-44 44.5 -44 131.5t59.5 143t151 56t146 -46t54.5 -145q0 -58 -19 -115t-47 -100.5t-68 -85.5t-73 -69t-72 -53q-53 -34 -88 -52l-28 48q12 0 67.5 38.5t78 57t42.5 37.5q46 46 76 92q-79 0 -120 7q-72 11 -116 55.5zM381 324q32 69 32 143.5t-39 107
t-97.5 32.5t-98.5 -41.5t-40 -101.5t29 -93.5t75 -39.5q36 -7 139 -7z" />
    <glyph glyph-name="colon" unicode=":" horiz-adv-x="250" 
d="M79 29q0 19 9.5 30t25.5 11q35 0 35 -41q0 -17 -10 -27t-25 -10q-35 0 -35 37zM79 432q0 19 9.5 30t25.5 11q35 0 35 -41q0 -17 -10 -27t-25 -10q-35 0 -35 37z" />
    <glyph glyph-name="semicolon" unicode=";" horiz-adv-x="232" 
d="M79 432q0 19 9.5 30t25.5 11q35 0 35 -41q0 -17 -10 -27t-25 -10q-35 0 -35 37zM127 64q0 -38 -8 -82l-7.5 -40t-5.5 -32l-3 -12h-35l2 12q3 13 6.5 32l9.5 51.5t6 70.5h35z" />
    <glyph glyph-name="less" unicode="&#x3c;" horiz-adv-x="569" 
d="M100 300l352 200l3 -52l-274 -149l274 -146l-3 -53z" />
    <glyph glyph-name="equal" unicode="=" horiz-adv-x="739" 
d="M146 383h454v-58h-454v58zM146 161h454v-58h-454v58z" />
    <glyph glyph-name="greater" unicode="&#x3e;" horiz-adv-x="569" 
d="M103 100l-3 53l273 146l-273 149l3 52l352 -200z" />
    <glyph glyph-name="question" unicode="?" horiz-adv-x="500" 
d="M237 700q79 0 127.5 -42t49.5 -106q0 -43 -29 -83t-103 -114q-97 -95 -97 -227h-45q0 150 82.5 236.5t104.5 119t21.5 71t-30.5 65.5q-32 28 -87 28q-33 0 -70.5 -11.5t-58.5 -24.5l-21 -13l-23 39q8 7 23 17.5t62 27.5t94 17zM127 6q0 20 10.5 31.5t27.5 11.5
q38 0 38 -43q0 -18 -10.5 -29t-27.5 -11q-38 0 -38 40z" />
    <glyph glyph-name="at" unicode="@" horiz-adv-x="1070" 
d="M758 16q51 0 100.5 63.5t49.5 172.5t-30 188t-82 126q-104 91 -265 91t-271 -122t-110 -302q0 -102 29.5 -179t82.5 -122q103 -89 268 -89q74 0 145 32l29 -50q-71 -40 -181 -40q-235 0 -353 154q-85 111 -85 308.5t129.5 332.5t321.5 135q185 0 308 -109
q60 -53 94.5 -140.5t34.5 -181.5t-21.5 -154.5t-55.5 -95.5q-68 -73 -146 -73q-39 0 -65 20.5t-30 56.5q-88 -42 -175 -42q-133 0 -141 105q-1 7 -1 14q0 84 101 112q56 14 216 32v77q0 109 -114 109q-60 -1 -136 -25l-4 -86l-49 -5v116l-2 5l10 4q78 34 119 41t60 7.5
t36.5 -0.5t45.5 -9t48.5 -22.5t35.5 -43.5t15 -69v-311q3 -31 38 -31zM498 42q76 0 157 34v143q-150 -5 -194 -20q-34 -9 -48 -32.5t-14 -37.5v-19q3 -36 31 -52t68 -16z" />
    <glyph glyph-name="A" unicode="A" horiz-adv-x="711" 
d="M488 0v55h61l-46 130h-308l-45 -130h72v-55h-202v55h66l233 645h61l241 -645h69v-55h-202zM346 624l-134 -389h273z" />
    <glyph glyph-name="B" unicode="B" horiz-adv-x="547" 
d="M50 645v55h215q216 0 216 -169q0 -71 -54 -153q95 -39 95 -171q0 -118 -59.5 -162.5t-182.5 -44.5h-230v55h65v590h-65zM300 343h-117v-288h92q46 0 75 5t55 20q49 27 49 123q0 76 -38.5 108t-115.5 32zM305 398q37 0 64 -4q44 69 44 131q0 120 -153 120h-77v-247h122z
" />
    <glyph glyph-name="C" unicode="C" horiz-adv-x="562" 
d="M353 646q-113 0 -179 -84t-66 -242q0 -68 14 -119t34.5 -79t50.5 -44q48 -27 112 -27q99 0 198 22l12 -52q-17 -6 -90.5 -15.5t-119.5 -9.5t-80 6.5t-72 27.5t-64.5 55.5t-44.5 94.5t-18 140q0 177 81 276q85 104 232 104q45 0 97.5 -8.5t74.5 -16.5l12 -144l-49 -7
l-14 108q-64 14 -121 14z" />
    <glyph glyph-name="D" unicode="D" horiz-adv-x="629" 
d="M50 645v55h241q135 0 216.5 -78.5t81.5 -255.5q0 -175 -57 -262q-50 -76 -156 -96q-47 -8 -110 -8h-216v55h61v590h-61zM286 645h-107v-590h82q133 0 183 49q53 51 68 138q9 51 9 119q0 150 -65.5 217t-169.5 67z" />
    <glyph glyph-name="E" unicode="E" horiz-adv-x="541" 
d="M50 645v55h425l-1 -6l13 -138l-50 -8l-12 97h-246v-268h218v63h55v-172h-55v54h-218v-267h273l15 125l49 -5l-15 -175h-451v55h61v590h-61z" />
    <glyph glyph-name="F" unicode="F" horiz-adv-x="512" 
d="M179 645v-268h218v63h55v-172h-55v54h-218v-267h73v-55h-202v55h61v590h-61v55h425l-1 -6l13 -138l-50 -8l-12 97h-246z" />
    <glyph glyph-name="G" unicode="G" horiz-adv-x="614" 
d="M387 264v55h181v-55h-39v-243q-17 -6 -90.5 -15.5t-119.5 -9.5t-80 6.5t-72 27.5t-64.5 55.5t-44.5 94.5t-18 140q0 177 81 276q85 104 232 104q45 0 97.5 -8.5t74.5 -16.5l12 -144l-49 -7l-14 108q-64 14 -121 14q-113 0 -179 -84t-66 -242q0 -68 14 -119t34.5 -79
t50.5 -44q48 -27 113 -27t150 13l3 200h-86z" />
    <glyph glyph-name="H" unicode="H" horiz-adv-x="685" 
d="M441 0v55h68v262h-341v-262h74v-55h-202v55h65v590h-65v55h202v-55h-74v-268h341v268h-68v55h192v-55h-61v-590h71v-55h-202z" />
    <glyph glyph-name="I" unicode="I" horiz-adv-x="302" 
d="M50 645v55h202v-55h-68v-590h68v-55h-202v55h66v590h-66z" />
    <glyph glyph-name="J" unicode="J" horiz-adv-x="235" 
d="M78 645h-75v55h202v-55h-59v-645q3 -120 -144 -248l-32 39q42 40 75.5 96t32.5 113v645z" />
    <glyph glyph-name="K" unicode="K" horiz-adv-x="602" 
d="M330 645v55h194v-55h-64l-203 -274l249 -316h76v-55h-32l-77 -1l-290 367l201 279h-54zM183 645v-590h69v-55h-202v55h65v590h-65v55h202v-55h-69z" />
    <glyph glyph-name="L" unicode="L" horiz-adv-x="517" 
d="M50 645v55h202v-55h-72v-590h254l15 125l49 -5l-11 -120h1l-1 -2l-4 -53l-10 1v-1h-423v55h62v590h-62z" />
    <glyph glyph-name="M" unicode="M" horiz-adv-x="877" 
d="M626 0v55h64v529l-228 -453h-68l-228 453v-529h82v-55h-202v55h57v590h-57v55h125l257 -512l257 512h132v-55h-64v-590h75v-55h-202z" />
    <glyph glyph-name="N" unicode="N" horiz-adv-x="749" 
d="M46 645v55h137l398 -610l-4 555h-65v55h191v-55h-63v-645h-73l-399 610l4 -555h76v-55h-202v55h64v590h-64z" />
    <glyph glyph-name="O" unicode="O" horiz-adv-x="670" 
d="M40 348q0 163 84.5 259.5t210.5 96.5q295 0 295 -356q0 -162 -84 -257t-211 -95q-295 0 -295 352zM108 350q0 -294 227 -294q98 0 162.5 78t64.5 216q0 294 -227 294q-98 0 -162.5 -78.5t-64.5 -215.5z" />
    <glyph glyph-name="P" unicode="P" horiz-adv-x="542" 
d="M52 645v55h208q123 0 182.5 -42t59.5 -158.5t-61.5 -172t-180.5 -55.5h-77v-217h71v-55h-202v55h63v590h-63zM255 645h-72v-318h72q90 0 134.5 39.5t44.5 129t-44 119.5t-135 30z" />
    <glyph glyph-name="Q" unicode="Q" horiz-adv-x="670" 
d="M40 348q0 163 84.5 259.5t210.5 96.5q295 0 295 -356q0 -153 -75.5 -247t-192.5 -104q28 -99 158 -191l-59 -6q-50 34 -98 87t-65 111q-258 20 -258 350zM108 350q0 -294 227 -294q98 0 162.5 78t64.5 216q0 294 -227 294q-98 0 -162.5 -78.5t-64.5 -215.5z" />
    <glyph glyph-name="R" unicode="R" horiz-adv-x="632" 
d="M50 645v55h241q103 0 159 -45t56 -134q0 -59 -41.5 -122.5t-81.5 -86.5l158 -257h71v-55h-110l-178 287h-145v-232h73v-55h-202v55h61v590h-61zM286 645h-107v-303h165q94 86 94 173q0 64 -39 97t-113 33z" />
    <glyph glyph-name="S" unicode="S" horiz-adv-x="527" 
d="M238 59q111 0 165 56q31 32 31 76t-21.5 72.5t-55.5 44t-75.5 27t-83 24.5t-75.5 31t-55.5 51t-21.5 79q0 80 60 131t159 51t186 -20v-1h3l11 -125l-49 -8l-11 84q-56 10 -123.5 10t-117.5 -29.5t-50 -83.5t40 -82t97 -42.5t114 -32.5t97 -62t40 -116q0 -97 -72 -146
t-179 -49q-135 0 -226 61l1 106l49 5l2 -76q76 -36 161 -36z" />
    <glyph glyph-name="T" unicode="T" horiz-adv-x="521" 
d="M162 0v55h65v585h-147l-11 -92l-49 8l12 144h456l13 -144l-50 -8l-12 92h-149v-585h73v-55h-201z" />
    <glyph glyph-name="U" unicode="U" horiz-adv-x="728" 
d="M50 645v55h202v-55h-69v-344q0 -155 61 -206q29 -25 59 -34.5t70 -9.5q81 0 132.5 60t51.5 190v344h-66v55h192v-55h-63v-345q0 -157 -69 -230.5t-178 -73.5q-55 0 -96.5 11.5t-80.5 42.5q-81 63 -81 250v345h-65z" />
    <glyph glyph-name="V" unicode="V" horiz-adv-x="709" 
d="M493 645v55h196v-55h-72l-228 -645h-66l-237 645h-66v55h202v-55h-69l208 -569l192 569h-60z" />
    <glyph glyph-name="W" unicode="W" horiz-adv-x="969" 
d="M20 645v55h202v-55h-75l139 -544l165 599h56l156 -601l150 546h-60v55h196v-55h-72l-188 -645h-61l-151 596l-165 -596h-62l-166 645h-64z" />
    <glyph glyph-name="X" unicode="X" horiz-adv-x="637" 
d="M401 0v55h69l-162 267l-153 -267h71v-55h-206v55h67l190 318l-172 272h-65v55h202v-55h-60l139 -231l132 231h-60v55h196v-55h-67l-170 -282l194 -308h71v-55h-216z" />
    <glyph glyph-name="Y" unicode="Y" horiz-adv-x="682" 
d="M20 645v55h202v-55h-63l188 -353l179 353h-61v55h196v-55h-67l-215 -409v-181h72v-55h-200v55h65v181l-228 409h-68z" />
    <glyph glyph-name="Z" unicode="Z" horiz-adv-x="577" 
d="M35 0l-10 55l393 590h-318l-12 -97l-50 8l13 144h435l10 -55l-393 -590h385l15 125l49 -5l-15 -175h-502z" />
    <glyph glyph-name="bracketleft" unicode="[" horiz-adv-x="430" 
d="M138 -201v1h-31v950h65v-1h128v-58h-128v-834h128v-58h-162z" />
    <glyph glyph-name="backslash" unicode="\" horiz-adv-x="600" 
d="M495 -200h-70l-318 949h70z" />
    <glyph glyph-name="bracketright" unicode="]" horiz-adv-x="430" 
d="M269 -200v-1h-162v58h128v834h-128v58h128v1h65v-950h-31z" />
    <glyph glyph-name="asciicircum" unicode="^" horiz-adv-x="560" 
d="M406 305l-32 -5q-8 11 -50 62t-54 67l-34 -43q-56 -68 -68 -86l-32 5q11 14 67 79t67 79q11 -14 68 -79t68 -79z" />
    <glyph glyph-name="underscore" unicode="_" horiz-adv-x="500" 
d="M79 58h354v-58h-354v58z" />
    <glyph glyph-name="grave" unicode="`" horiz-adv-x="299" 
d="M235 603l-46 -8l-118 148l60 7z" />
    <glyph glyph-name="a" unicode="a" horiz-adv-x="539" 
d="M182 -4q-133 0 -141 105q-1 7 -1 14q0 84 101 112q56 14 216 32v77q0 109 -114 109q-82 -1 -174 -38l-17 43l10 4q78 34 119 41t60 7.5t36.5 -0.5t45.5 -9t48.5 -22.5t35.5 -43.5t15 -69v-308h77v-50h-132l-10 38q-90 -42 -175 -42zM200 42q76 0 157 34v143
q-150 -5 -194 -20q-34 -9 -48 -32.5t-14 -37.5v-19q3 -36 31 -52t68 -16z" />
    <glyph glyph-name="b" unicode="b" horiz-adv-x="560" 
d="M50 700v50h132v-290q60 49 134 49q68 0 128 -42q32 -23 51.5 -72t19.5 -119q0 -133 -66 -200q-75 -76 -190 -76q-43 0 -85.5 7t-56.5 16v677h-67zM182 425v-369q29 -7 63 -7q99 0 152 58t53 164q0 123 -72 161q-35 19 -84.5 19t-111.5 -26z" />
    <glyph glyph-name="c" unicode="c" horiz-adv-x="478" 
d="M300 446q-85 0 -137.5 -56.5t-52.5 -158.5q0 -177 165 -177q64 0 107 10.5t47 13.5l14 -47q-23 -15 -76 -25t-96 -10t-78 9t-70.5 32t-56.5 72.5t-21 120.5q0 131 67 198q75 77 189 77q36 0 76.5 -9.5t62.5 -29.5v-131l-49 -7l-5 105q-41 13 -86 13z" />
    <glyph glyph-name="d" unicode="d" horiz-adv-x="579" 
d="M123 37q-35 23 -56.5 72.5t-21.5 120.5q0 131 67 200q71 74 162 74q56 0 114 -29v225h-67v50h132v-700h77v-50h-132l-8 32q-57 -36 -131 -36t-136 41zM388 81v351q-46 14 -87 14q-86 0 -138.5 -56.5t-52.5 -158.5q0 -54 15.5 -91.5t41.5 -55.5q45 -30 105 -30t116 27z
" />
    <glyph glyph-name="e" unicode="e" 
d="M108 224q0 -89 51 -129.5t119 -40.5q44 0 90.5 8.5t61.5 15.5l13 -47q-23 -15 -75.5 -25t-96 -10t-78 9t-70.5 32t-57 72t-21 120q0 132 68 202q71 73 165 73t143.5 -52t49.5 -146q0 -20 -3 -43h-357q-3 -21 -3 -39zM411 313q0 62 -37 95.5t-86 33.5q-67 0 -111 -40.5
t-59 -99.5h293v11z" />
    <glyph glyph-name="f" unicode="f" horiz-adv-x="360" 
d="M147 720.5q45 30.5 95 30.5t78 -11l-3 -47q-24 3 -41.5 3t-34 -3.5t-34.5 -12.5q-40 -22 -40 -82v-98h121v-58h-121v-392h85v-50h-212v50h62v392h-51l8 48l43 9v122q0 69 45 99.5z" />
    <glyph glyph-name="g" unicode="g" horiz-adv-x="561" 
d="M41 -104q0 90 107 158q-42 30 -42 71.5t36 67.5q-74 36 -74 146q0 77 58 121t148 44q29 0 59 -5l188 5l-2 -38h-109q55 -41 55 -123t-55 -127t-142 -45q-56 0 -93 10q-19 -18 -19 -46t34.5 -43.5t89 -23t79.5 -13t58 -17.5t53 -28q47 -39 47 -104q0 -45 -21 -77t-58 -49
q-68 -30 -162 -30q-125 0 -180 43t-55 103zM106 -97q0 -41 40 -68t122 -27q184 0 184 98q0 49 -44 70q-38 19 -84 28q-98 14 -141 31q-77 -63 -77 -132zM171 422.5q-38 -28.5 -38 -85t29.5 -85t94.5 -28.5t102.5 32.5t37.5 88.5q0 106 -126 106q-62 0 -100 -28.5z" />
    <glyph glyph-name="h" unicode="h" horiz-adv-x="628" 
d="M387 0v50h61v292q0 35 -14.5 57t-37.5 29q-38 13 -62 11q-65 -2 -143 -46v-343h76v-50h-202v50h61v650h-67v50h132v-312q131 90 237 56q24 -7 41.5 -20.5t30.5 -40.5t13 -65v-318h76v-50h-202z" />
    <glyph glyph-name="i" unicode="i" horiz-adv-x="316" 
d="M59 450v50h132v-450h75v-50h-202v50h62v400h-67zM126 646.5q-11 12.5 -11 33t11.5 33t31.5 12.5t32.5 -12.5t12.5 -34t-13 -33t-33 -11.5t-31 12.5z" />
    <glyph glyph-name="j" unicode="j" horiz-adv-x="285" 
d="M159 450h-67v50h132v-500v-5q0 -40 -14.5 -79.5t-35.5 -67.5q-43 -58 -79 -85l-15 -11l-30 39q110 105 109 209v450zM158.5 646.5q-11.5 12.5 -11.5 33t12 33t32 12.5t32 -12.5t12 -34t-12.5 -33t-32.5 -11.5t-31.5 12.5z" />
    <glyph glyph-name="k" unicode="k" horiz-adv-x="582" 
d="M309 450v50h210v-50h-94l-168 -184l190 -216h95v-50h-127l-223 266v-216h75v-50h-202v50h62v650h-67v50h132v-484l158 184h-41z" />
    <glyph glyph-name="l" unicode="l" horiz-adv-x="307" 
d="M60 700v50h132v-700h75v-50h-202v50h62v650h-67z" />
    <glyph glyph-name="m" unicode="m" horiz-adv-x="909" 
d="M355 0v50h62v294q0 97 -108 97q-57 -1 -128 -38v-353h76v-50h-202v50h61v400h-66v50h132v-50h-1v-3q83 52 152 56q95 0 129 -54q87 50 164 54q70 0 106 -29q17 -13 29.5 -40.5t12.5 -65.5v-318h74v-50h-202v50h63v293q0 98 -107 98q-58 -1 -123 -36q3 -17 3 -37v-318h75
v-50h-202z" />
    <glyph glyph-name="n" unicode="n" horiz-adv-x="630" 
d="M50 450v50h132v-56q82 56 157 59q73 0 111 -29q17 -13 30.5 -40.5t13.5 -65.5v-318h77v-50h-202v50h60v293q0 97 -114 97q-62 -2 -133 -41v-349h75v-50h-202v50h62v400h-67z" />
    <glyph glyph-name="o" unicode="o" horiz-adv-x="565" 
d="M109.5 56q-64.5 60 -64.5 183.5t68.5 194t172.5 70.5t169 -60t65 -183.5t-68.5 -194t-173 -70.5t-169 60zM160 392q-50 -54 -50 -146.5t47.5 -142t122.5 -49.5t125 53.5t50 146t-48 142.5t-122.5 50t-124.5 -54z" />
    <glyph glyph-name="p" unicode="p" horiz-adv-x="570" 
d="M60 450v50h132v-37q63 46 134 46q68 0 128 -42q32 -23 51.5 -72t19.5 -119q0 -133 -66 -200q-75 -76 -194 -76q-35 0 -73 5v-205h85v-50h-212v50h62v650h-67zM192 422v-366q29 -7 63 -7q99 0 152 58t53 164q0 123 -72 161q-35 19 -81 19t-115 -29z" />
    <glyph glyph-name="q" unicode="q" horiz-adv-x="588" 
d="M326 -250v50h62v231q-56 -35 -130 -35q-73 0 -135 41q-35 23 -56.5 72.5t-21.5 120.5q0 131 67 200q71 74 162 74q56 0 114 -29v20l65 5v-700h85v-50h-212zM388 81v351q-46 14 -87 14q-86 0 -138.5 -56.5t-52.5 -158.5q0 -54 15.5 -91.5t41.5 -55.5q45 -30 105 -30
t116 27z" />
    <glyph glyph-name="r" unicode="r" horiz-adv-x="444" 
d="M181 50h83v-50h-210v50h62v400h-67v50h132v-121q79 116 155 118h12l56 -7l-26 -60q-19 9 -49 9q-72 -1 -148 -104v-285z" />
    <glyph glyph-name="s" unicode="s" horiz-adv-x="421" 
d="M93 65q42 -13 67.5 -13t33.5 1q52 1 87 22t35 59t-27.5 59t-66.5 32t-78 24t-66.5 41t-27.5 73q0 64 49 102.5t124 38.5q56 0 113 -20l18 -7v-115l-49 -7l-4 85q-40 6 -67 6q-55 0 -87 -21.5t-32 -55t27.5 -52.5t66.5 -30t78 -24.5t66.5 -44t27.5 -79.5
q0 -66 -49.5 -104.5t-140.5 -38.5t-151 43v115l48 7z" />
    <glyph glyph-name="t" unicode="t" horiz-adv-x="350" 
d="M268 49l39 2l3 -40q-1 0 -14 -3q-30 -7 -67 -7q-34 2 -62 11.5t-52 40t-24 78.5v311h-51l8 48l44 9l8 96l56 5v-100h121v-58h-121v-294q0 -99 112 -99z" />
    <glyph glyph-name="u" unicode="u" horiz-adv-x="649" 
d="M448 58q-91 -61 -172 -61q-34 0 -80 17q-30 11 -48 41.5t-18 76.5v318h-70v50h135v-348q0 -35 15 -57.5t38 -29.5q38 -12 61 -10q60 1 139 43v352h-70v50h135v-450h77v-50h-132z" />
    <glyph glyph-name="v" unicode="v" horiz-adv-x="616" 
d="M391 450v50h184v-50h-59l-181 -450h-60l-167 450h-68v50h211v-50h-70l127 -373l139 373h-56z" />
    <glyph glyph-name="w" unicode="w" horiz-adv-x="901" 
d="M40 450v50h210v-50h-67l111 -369l131 414l64 5l110 -419l129 369h-68v50h200v-50h-58l-171 -450h-60l-117 397l-135 -397h-60l-150 450h-69z" />
    <glyph glyph-name="x" unicode="x" horiz-adv-x="582" 
d="M326 0v50h62l-110 170l-141 -220h-97v50h65l142 217l-122 183h-65v50h209v-50h-66l96 -152l127 201h2v1h95v-50h-63l-131 -200l137 -200h75v-50h-215z" />
    <glyph glyph-name="y" unicode="y" horiz-adv-x="653" 
d="M429 450v50h184v-50h-60l-199 -450l-33 -199h84v-50h-211v50h62l31 199h-17l-162 450h-68v50h211v-50h-69l132 -403l170 403h-55z" />
    <glyph glyph-name="z" unicode="z" horiz-adv-x="500" 
d="M58 500h372l9 -58l-312 -384h279l4 96l49 7v-154l1 -7h-411l-9 58l316 384h-245l-4 -80l-49 -7v145z" />
    <glyph glyph-name="braceleft" unicode="{" horiz-adv-x="453" 
d="M61 221v57q116 0 116 100v235q0 44 17 74q35 62 139 62q10 0 20 -1v-57h-8q-43 0 -75.5 -21.5t-32.5 -78.5v-210q0 -92 -57 -132q57 -38 57 -131v-210q0 -58 32.5 -79t75.5 -21h8v-57q-10 -1 -25 -1t-37.5 3.5t-51 16t-45.5 42.5t-17 74v210q0 121 -109 125h-7z" />
    <glyph glyph-name="bar" unicode="|" horiz-adv-x="284" 
d="M112 749h60v-949h-60v949z" />
    <glyph glyph-name="braceright" unicode="}" horiz-adv-x="453" 
d="M353 221h-7q-109 -4 -109 -125v-210q0 -44 -17 -74q-35 -62 -139 -62q-10 0 -20 1v57h8q43 0 75.5 21t32.5 79v210q0 93 57 131q-57 40 -57 132v210q0 57 -32.5 78.5t-75.5 21.5h-8v57q10 1 24.5 1t37 -3.5t51.5 -16t46 -42.5t17 -74v-235q0 -100 116 -100v-57z" />
    <glyph glyph-name="asciitilde" unicode="~" horiz-adv-x="588" 
d="M210 380q34 0 101.5 -16.5t93.5 -16.5t35 9t13 30l35 -7q-9 -39 -26 -54.5t-43.5 -15.5t-100.5 19q-66 15 -102 15q-53 0 -60 -35l-34 7q13 65 88 65z" />
    <glyph glyph-name="exclamdown" unicode="&#xa1;" horiz-adv-x="282" 
d="M170 371v-571l-60 5v566h60zM104 465q0 14 10.5 24.5t24.5 10.5t24.5 -10.5t10.5 -24.5t-10.5 -24.5t-24.5 -10.5t-24.5 10.5t-10.5 24.5z" />
    <glyph glyph-name="cent" unicode="&#xa2;" horiz-adv-x="479" 
d="M300 446h-11v-392q58 2 96.5 13.5t42.5 14.5l16 -54q-50 -27 -155 -31v-97h-30v96q-82 2 -141 44q-34 24 -53.5 72.5t-19.5 117.5q0 126 61 192.5t153 79.5v98h30v-95h30t62 -10t59 -29v-121l-49 -7l-5 95q-41 13 -86 13zM110 231q0 -168 149 -177v388q-69 -12 -109 -67
t-40 -144z" />
    <glyph glyph-name="sterling" unicode="&#xa3;" horiz-adv-x="502" 
d="M101 412q0 185 157 185q74 0 121 -40l-23 -42q-33 29 -90 29t-81.5 -34.5t-24.5 -99.5t7 -97h166v-33h-158l17.5 -57t14.5 -84q0 -66 -42 -86h261l5 -53h-346l-7 53h7q25 1 43.5 22.5t18.5 62.5t-12.5 79t-18.5 63h-65v33h59q-9 55 -9 99z" />
    <glyph glyph-name="currency" unicode="&#xa4;" horiz-adv-x="600" 
d="M134 324q-34 48 -34 122t38 125l-48 49l41 41l49 -49q52 38 123 38t122 -35l48 48l42 -42l-49 -49q34 -50 34 -120.5t-38 -121.5l53 -53l-41 -41l-53 53q-53 -39 -123 -39t-121 33l-46 -46l-42 42zM201 550.5q-41 -41.5 -41 -103.5t40 -100.5t99 -38.5t100 41.5t41 103.5
t-40 100.5t-99 38.5t-100 -41.5z" />
    <glyph glyph-name="brokenbar" unicode="&#xa6;" horiz-adv-x="284" 
d="M112 200h60v-400h-60v400zM172 400h-60v349h60v-349z" />
    <glyph glyph-name="section" unicode="&#xa7;" horiz-adv-x="500" 
d="M90 600h65q2 -76 51 -109q23 -15 50.5 -27t54.5 -26t49 -34q50 -44 50 -142h-65q0 78 -51 114q-22 16 -49 28.5l-54.5 26.5t-50.5 33q-50 43 -50 136zM90 361h65q2 -77 51 -110q23 -15 50.5 -27.5t54.5 -26.5t49 -33q50 -45 50 -141h-65q0 78 -51 114q-22 16 -49 28
t-54.5 26t-50.5 33q-50 43 -50 137z" />
    <glyph glyph-name="dieresis" unicode="&#xa8;" horiz-adv-x="500" 
d="M119.5 581.5q-10.5 11.5 -10.5 29.5t10.5 28.5t28 10.5t28 -10.5t10.5 -29.5t-11 -29.5t-28 -10.5t-27.5 11.5zM335 581.5q-10 11.5 -10 29.5t10 28.5t27 10.5q40 0 40 -40q0 -19 -11 -29.5t-28.5 -10.5t-27.5 11.5z" />
    <glyph glyph-name="copyright" unicode="&#xa9;" horiz-adv-x="833" 
d="M172 76q-87 81 -87 227t89 234t222 88t220 -81.5t87 -227t-89 -233.5t-222 -88t-220 81zM195.5 516.5q-80.5 -80.5 -80.5 -209.5t79.5 -206.5t198.5 -77.5t199.5 80.5t80.5 209.5t-79.5 206.5t-198.5 77.5t-199.5 -80.5zM387 477q-62 0 -98 -46t-36 -132q0 -147 115 -147
q48 0 108 12l7 -29q-48 -13 -119 -13q-148 0 -148 177q0 97 44 151q47 56 125 56q26 0 55.5 -5t39.5 -9l7 -78l-27 -4l-7 59q-36 8 -66 8z" />
    <glyph glyph-name="ordfeminine" unicode="&#xaa;" horiz-adv-x="300" 
d="M76 663q47 19 69 19q65 0 65 -53v-111h28v-18h-48l-4 14q-32 -15 -63 -15q-48 0 -51 38v6q0 29 36 39q18 5 78 12v27q0 40 -41 40q-35 0 -63 -14zM94 540q1 -25 31.5 -25t60.5 12v52q-59 -3 -70 -7q-23 -7 -23 -26q0 -3 1 -6z" />
    <glyph glyph-name="guillemotleft" unicode="&#xab;" horiz-adv-x="694" 
d="M344 136v-48l-269 171l269 171v-48l-204 -123zM600 136v-48l-269 171l269 171v-48l-204 -123z" />
    <glyph glyph-name="logicalnot" unicode="&#xac;" horiz-adv-x="600" 
d="M100 290h422v-138h-60v80h-362v58z" />
    <glyph glyph-name="registered" unicode="&#xae;" horiz-adv-x="599" 
d="M148 343q-58 54 -58 151.5t59.5 156.5t148.5 59t147 -54.5t58 -152t-59.5 -156t-148.5 -58.5t-147 54zM167 635.5q-52 -51.5 -52 -139t51 -136t129 -48.5t130.5 51t52.5 138t-51.5 136.5t-129.5 49.5t-130 -51.5zM223 595v18h80q71 0 71 -60q0 -19 -14 -40t-27 -29
l53 -86h24v-18h-37l-59 96h-48v-78h24v-18h-67v18h20v197h-20zM301 595h-35v-101h54q32 28 32 57q0 44 -51 44z" />
    <glyph glyph-name="macron" unicode="&#xaf;" horiz-adv-x="500" 
d="M100 648h300v-58h-300v58z" />
    <glyph glyph-name="degree" unicode="&#xb0;" horiz-adv-x="378" 
d="M117.5 538q-27.5 25 -27.5 70.5t28.5 73.5t71 28t70 -25t27.5 -71t-28.5 -73.5t-71 -27.5t-70 25zM140 661q-20 -21 -20 -52t19 -49.5t48.5 -18.5t49.5 20.5t20 51.5t-19.5 50t-48.5 19t-49 -21z" />
    <glyph glyph-name="plusminus" unicode="&#xb1;" horiz-adv-x="833" 
d="M146 490h220v210h60v-210h220v-58h-220v-232h-60v232h-220v58zM146 123h500v-58h-500v58z" />
    <glyph glyph-name="twosuperior" unicode="&#xb2;" horiz-adv-x="236" 
d="M145.5 712.5q-10.5 14.5 -36.5 14.5t-60 -16l-10 18q36 19 69 19q73 0 73 -67q0 -49 -63 -111q-6 -7 -28 -27.5t-25 -23.5h106l6 47l18 -2l-6 -66h-153l-4 21l23.5 22.5l22.5 21.5l19 19q13 13 17.5 19t13.5 16.5t12.5 17t7.5 15.5q8 15 8 31.5t-10.5 31z" />
    <glyph glyph-name="threesuperior" unicode="&#xb3;" horiz-adv-x="300" 
d="M167 723q-25 0 -59 -16l-6 18q31 19 63 19t50 -14t18 -39q0 -41 -43 -60q45 -11 45 -57q0 -75 -99 -75q-25 0 -45 6l6 19q14 -5 37 -5q76 0 76 53q0 33 -28 41q-22 6 -54 6v16h31q22 3 35.5 18.5t13.5 34.5q0 35 -41 35z" />
    <glyph glyph-name="acute" unicode="&#xb4;" horiz-adv-x="300" 
d="M180 750l60 -7l-119 -148l-45 8z" />
    <glyph glyph-name="mu" unicode="&#xb5;" horiz-adv-x="649" 
d="M195 -250h-65v500h65v-500zM448 58q-91 -61 -172 -61q-34 0 -80 17q-30 11 -48 41.5t-18 76.5v318h-70v50h135v-348q0 -35 15 -57.5t38 -29.5q38 -12 61 -10q60 1 139 43v352h-70v50h135v-450h77v-50h-132z" />
    <glyph glyph-name="paragraph" unicode="&#xb6;" horiz-adv-x="611" 
d="M162 403q-47 44 -47 121t48.5 126.5t117.5 49.5h60v-500h-60v159q-72 0 -119 44zM498 700v-700h-50v700h50z" />
    <glyph glyph-name="periodcentered" unicode="&#xb7;" horiz-adv-x="136" 
d="M34 382q0 17 9 27.5t23 10.5q33 0 33 -38q0 -15 -9.5 -24.5t-23.5 -9.5q-32 0 -32 34z" />
    <glyph glyph-name="cedilla" unicode="&#xb8;" horiz-adv-x="260" 
d="M58 -118q75 26 75 72q0 25 -7 46l35 6q8 -21 8 -38q0 -38 -29.5 -67.5t-71.5 -39.5z" />
    <glyph glyph-name="onesuperior" unicode="&#xb9;" horiz-adv-x="275" 
d="M170 749v-249h-24v231l-59 -14v18l59 14h24z" />
    <glyph glyph-name="ordmasculine" unicode="&#xba;" horiz-adv-x="300" 
d="M83 524.5q-25 23.5 -25 71.5t26.5 75.5t67 27.5t65.5 -23t25 -71t-26.5 -76t-67 -28t-65.5 23.5zM102.5 656q-19.5 -21 -19.5 -57t18.5 -55.5t47.5 -19.5t48.5 21t19.5 57t-18.5 55.5t-47.5 19.5t-48.5 -21z" />
    <glyph glyph-name="guillemotright" unicode="&#xbb;" horiz-adv-x="694" 
d="M331 88v48l204 123l-204 123v48l269 -171zM75 88v48l204 123l-204 123v48l269 -171z" />
    <glyph glyph-name="onequarter" unicode="&#xbc;" horiz-adv-x="840" 
d="M509 750h47l-251 -750h-48zM675 98h-210l-12 38l222 327h48v-327h32l1 -38h-33v-64l47 -3q-1 -30 -1 -31l-139 -1v31l37 5q5 1 8 9v54zM675 136v257l-175 -257h175zM80 692l-1 33l109 24h42v-449h-42v416z" />
    <glyph glyph-name="onehalf" unicode="&#xbd;" horiz-adv-x="862" 
d="M82 691l-1 34l109 24h43v-449h-43v416zM537 413q63 35 121 35t95 -28t37 -92q0 -91 -112 -200l-50.5 -47t-45.5 -43h190l10 84l33 -3l-10 -118h-274l-8 37q126 122 153 153q69 79 69 139q0 29 -19 55t-67 26q-45 0 -90 -23l-15 -7zM509 750h47l-251 -750h-48z" />
    <glyph glyph-name="threequarters" unicode="&#xbe;" horiz-adv-x="799" 
d="M672 98h-210l-12 39l222 327h48v-327h32l1 -39h-33v-64l48 -2l-1 -32l-141 -1q0 28 1 31l37 5q5 1 8 9v54zM672 137v257l-175 -257h175zM115 519v31q36 0 55 -1q34 4 64 31q27 23 27 67q0 26 -17.5 45t-49.5 19q-54 0 -101 -22l-15 -7l-12 33q57 34 116 34t92 -25t33 -72
q0 -76 -80 -110q83 -19 83 -105q0 -137 -181 -137q-44 0 -84 11l11 35q27 -9 69 -9q139 0 139 98q0 24 -10 41t-23 25t-37 13q-29 5 -79 5zM509 750h47l-251 -750h-48z" />
    <glyph glyph-name="questiondown" unicode="&#xbf;" horiz-adv-x="500" 
d="M261 -200q-79 0 -127.5 42t-49.5 106q0 43 29 83t103 114q97 95 97 227h45q0 -150 -82.5 -236.5t-104.5 -119t-21.5 -71t30.5 -65.5q32 -28 87 -28q33 0 70.5 11.5t58.5 24.5l21 13l23 -39q-8 -7 -23 -17.5t-62 -27.5t-94 -17zM371 494q0 -20 -10.5 -31.5t-27.5 -11.5
q-38 0 -38 43q0 18 10.5 29t27.5 11q38 0 38 -40z" />
    <glyph glyph-name="Agrave" unicode="&#xc0;" horiz-adv-x="711" 
d="M488 0v55h61l-46 130h-308l-45 -130h72v-55h-202v55h66l233 645h61l241 -645h69v-55h-202zM346 624l-134 -389h273zM370 754l-46 -8l-118 148l60 7z" />
    <glyph glyph-name="Aacute" unicode="&#xc1;" horiz-adv-x="711" 
d="M488 0v55h61l-46 130h-308l-45 -130h72v-55h-202v55h66l233 645h61l241 -645h69v-55h-202zM346 624l-134 -389h273zM429 901l60 -7l-119 -148l-45 8z" />
    <glyph glyph-name="Acircumflex" unicode="&#xc2;" horiz-adv-x="711" 
d="M488 0v55h61l-46 130h-308l-45 -130h72v-55h-202v55h66l233 645h61l241 -645h69v-55h-202zM346 624l-134 -389h273zM177 779l167 161q158 -154 166 -161l-33 -29l-134 133l-132 -133z" />
    <glyph glyph-name="Atilde" unicode="&#xc3;" horiz-adv-x="711" 
d="M488 0v55h61l-46 130h-308l-45 -130h72v-55h-202v55h66l233 645h61l241 -645h69v-55h-202zM346 624l-134 -389h273zM259 821q34 0 101.5 -16.5t93.5 -16.5t35 9t13 30l35 -7q-9 -39 -26 -54.5t-43.5 -15.5t-100.5 19q-66 15 -102 15q-53 0 -60 -35l-34 7q13 65 88 65z
" />
    <glyph glyph-name="Adieresis" unicode="&#xc4;" horiz-adv-x="711" 
d="M488 0v55h61l-46 130h-308l-45 -130h72v-55h-202v55h66l233 645h61l241 -645h69v-55h-202zM346 624l-134 -389h273zM210.5 761.5q-10.5 11.5 -10.5 29.5t10.5 28.5t28 10.5t28 -10.5t10.5 -29.5t-11 -29.5t-28 -10.5t-27.5 11.5zM426 761.5q-10 11.5 -10 29.5t10 28.5
t27 10.5q40 0 40 -40q0 -19 -11 -29.5t-28.5 -10.5t-27.5 11.5z" />
    <glyph glyph-name="Aring" unicode="&#xc5;" horiz-adv-x="711" 
d="M488 0v55h61l-46 130h-308l-45 -130h72v-55h-202v55h66l233 645h61l241 -645h69v-55h-202zM346 624l-134 -389h273zM286.5 769q-23.5 19 -23.5 56t25 60.5t59 23.5q85 0 85 -80q0 -33 -24.5 -56t-61 -23t-60 19zM312.5 865.5q-14.5 -15.5 -14.5 -38.5t13.5 -36t35 -13
t36 15t14.5 38t-14 36.5t-35 13.5t-35.5 -15.5z" />
    <glyph glyph-name="AE" unicode="&#xc6;" horiz-adv-x="728" 
d="M20 -1l1 34l52 7q7 0 11 12l1 1l243 647h326l13 -144l-50 -8l-12 92h-179v-263h145q10 2 10 12l4 49l46 2v-171q-1 0 -23 -1h-22l-4 49h-156v-257h206l15 120l49 -5l-15 -175h-323v185h-162l-52 -145l78 -5v-18l-1 -17zM358 235v401l-144 -401h144z" />
    <glyph glyph-name="Ccedilla" unicode="&#xc7;" horiz-adv-x="562" 
d="M353 646q-113 0 -179 -84t-66 -242q0 -68 14 -119t34.5 -79t50.5 -44q48 -27 112 -27q99 0 198 22l12 -52q-17 -6 -90.5 -15.5t-119.5 -9.5t-80 6.5t-72 27.5t-64.5 55.5t-44.5 94.5t-18 140q0 177 81 276q85 104 232 104q45 0 97.5 -8.5t74.5 -16.5l12 -144l-49 -7
l-14 108q-64 14 -121 14zM270 -118q75 26 75 72q0 25 -7 46l35 6q8 -21 8 -38q0 -38 -29.5 -67.5t-71.5 -39.5z" />
    <glyph glyph-name="Egrave" unicode="&#xc8;" 
d="M20 645v55h425l-1 -6l13 -138l-50 -8l-12 97h-246v-268h218v63h55v-172h-55v54h-218v-267h273l15 125l49 -5l-15 -175h-451v55h61v590h-61zM299 753l-46 -8l-118 148l60 7z" />
    <glyph glyph-name="Eacute" unicode="&#xc9;" 
d="M20 645v55h425l-1 -6l13 -138l-50 -8l-12 97h-246v-268h218v63h55v-172h-55v54h-218v-267h273l15 125l49 -5l-15 -175h-451v55h61v590h-61zM330 900l60 -7l-119 -148l-45 8z" />
    <glyph glyph-name="Ecircumflex" unicode="&#xca;" 
d="M20 645v55h425l-1 -6l13 -138l-50 -8l-12 97h-246v-268h218v63h55v-172h-55v54h-218v-267h273l15 125l49 -5l-15 -175h-451v55h61v590h-61zM98 778l167 161q158 -154 166 -161l-33 -29l-134 133l-132 -133z" />
    <glyph glyph-name="Edieresis" unicode="&#xcb;" 
d="M20 645v55h425l-1 -6l13 -138l-50 -8l-12 97h-246v-268h218v63h55v-172h-55v54h-218v-267h273l15 125l49 -5l-15 -175h-451v55h61v590h-61zM133.5 761.5q-10.5 11.5 -10.5 29.5t10.5 28.5t28 10.5t28 -10.5t10.5 -29.5t-11 -29.5t-28 -10.5t-27.5 11.5zM349 761.5
q-10 11.5 -10 29.5t10 28.5t27 10.5q40 0 40 -40q0 -19 -11 -29.5t-28.5 -10.5t-27.5 11.5z" />
    <glyph glyph-name="Igrave" unicode="&#xcc;" horiz-adv-x="267" 
d="M184 753l-46 -8l-118 148l60 7zM45 645v55h202v-55h-68v-590h68v-55h-202v55h66v590h-66z" />
    <glyph glyph-name="Iacute" unicode="&#xcd;" horiz-adv-x="295" 
d="M215 900l60 -7l-119 -148l-45 8zM20 645v55h202v-55h-68v-590h68v-55h-202v55h66v590h-66z" />
    <glyph glyph-name="Icircumflex" unicode="&#xce;" horiz-adv-x="374" 
d="M20 750l167 161q158 -154 166 -161l-33 -29l-134 133l-132 -133zM87 645v55h202v-55h-68v-590h68v-55h-202v55h66v590h-66z" />
    <glyph glyph-name="Idieresis" unicode="&#xcf;" horiz-adv-x="333" 
d="M30.5 760.5q-10.5 11.5 -10.5 29.5t10.5 28.5t28 10.5t28 -10.5t10.5 -29.5t-11 -29.5t-28 -10.5t-27.5 11.5zM246 760.5q-10 11.5 -10 29.5t10 28.5t27 10.5q40 0 40 -40q0 -19 -11 -29.5t-28.5 -10.5t-27.5 11.5zM70 645v55h202v-55h-68v-590h68v-55h-202v55h66v590
h-66z" />
    <glyph glyph-name="Eth" unicode="&#xd0;" horiz-adv-x="605" 
d="M50 386h277v-28h-277v28zM50 645v55h241q135 0 216.5 -78.5t81.5 -255.5q0 -175 -57 -262q-50 -76 -156 -96q-47 -8 -110 -8h-216v55h61v590h-61zM286 645h-107v-590h82q133 0 183 49q53 51 68 138q9 51 9 119q0 150 -65.5 217t-169.5 67z" />
    <glyph glyph-name="Ntilde" unicode="&#xd1;" horiz-adv-x="749" 
d="M46 645v55h137l398 -610l-4 555h-65v55h191v-55h-63v-645h-73l-399 610l4 -555h76v-55h-202v55h64v590h-64zM276 820q34 0 101.5 -16.5t93.5 -16.5t35 9t13 30l35 -7q-9 -39 -26 -54.5t-43.5 -15.5t-100.5 19q-66 15 -102 15q-53 0 -60 -35l-34 7q13 65 88 65z" />
    <glyph glyph-name="Ograve" unicode="&#xd2;" horiz-adv-x="670" 
d="M40 348q0 163 84.5 259.5t210.5 96.5q295 0 295 -356q0 -162 -84 -257t-211 -95q-295 0 -295 352zM108 350q0 -294 227 -294q98 0 162.5 78t64.5 216q0 294 -227 294q-98 0 -162.5 -78.5t-64.5 -215.5zM378 753l-46 -8l-118 148l60 7z" />
    <glyph glyph-name="Oacute" unicode="&#xd3;" horiz-adv-x="670" 
d="M40 348q0 163 84.5 259.5t210.5 96.5q295 0 295 -356q0 -162 -84 -257t-211 -95q-295 0 -295 352zM108 350q0 -294 227 -294q98 0 162.5 78t64.5 216q0 294 -227 294q-98 0 -162.5 -78.5t-64.5 -215.5zM440 900l60 -7l-119 -148l-45 8z" />
    <glyph glyph-name="Ocircumflex" unicode="&#xd4;" horiz-adv-x="670" 
d="M40 348q0 163 84.5 259.5t210.5 96.5q295 0 295 -356q0 -162 -84 -257t-211 -95q-295 0 -295 352zM108 350q0 -294 227 -294q98 0 162.5 78t64.5 216q0 294 -227 294q-98 0 -162.5 -78.5t-64.5 -215.5zM197 778l167 161q158 -154 166 -161l-33 -29l-134 133l-132 -133z
" />
    <glyph glyph-name="Otilde" unicode="&#xd5;" horiz-adv-x="670" 
d="M40 348q0 163 84.5 259.5t210.5 96.5q295 0 295 -356q0 -162 -84 -257t-211 -95q-295 0 -295 352zM108 350q0 -294 227 -294q98 0 162.5 78t64.5 216q0 294 -227 294q-98 0 -162.5 -78.5t-64.5 -215.5zM268 832q34 0 101.5 -16.5t93.5 -16.5t35 9t13 30l35 -7
q-9 -39 -26 -54.5t-43.5 -15.5t-100.5 19q-66 15 -102 15q-53 0 -60 -35l-34 7q13 65 88 65z" />
    <glyph glyph-name="Odieresis" unicode="&#xd6;" horiz-adv-x="670" 
d="M40 348q0 163 84.5 259.5t210.5 96.5q295 0 295 -356q0 -162 -84 -257t-211 -95q-295 0 -295 352zM108 350q0 -294 227 -294q98 0 162.5 78t64.5 216q0 294 -227 294q-98 0 -162.5 -78.5t-64.5 -215.5zM225.5 761.5q-10.5 11.5 -10.5 29.5t10.5 28.5t28 10.5t28 -10.5
t10.5 -29.5t-11 -29.5t-28 -10.5t-27.5 11.5zM441 761.5q-10 11.5 -10 29.5t10 28.5t27 10.5q40 0 40 -40q0 -19 -11 -29.5t-28.5 -10.5t-27.5 11.5z" />
    <glyph glyph-name="multiply" unicode="&#xd7;" horiz-adv-x="632" 
d="M476 -21l-160 160l-160 -160l-41 41l160 160l-160 160l41 41l160 -160l160 160l41 -41l-160 -160l160 -160z" />
    <glyph glyph-name="Oslash" unicode="&#xd8;" horiz-adv-x="667" 
d="M615 677l-510 -677l-29 23l510 677zM40 348q0 163 84.5 259.5t210.5 96.5q295 0 295 -356q0 -162 -84 -257t-211 -95q-295 0 -295 352zM108 350q0 -294 227 -294q98 0 162.5 78t64.5 216q0 294 -227 294q-98 0 -162.5 -78.5t-64.5 -215.5z" />
    <glyph glyph-name="Ugrave" unicode="&#xd9;" horiz-adv-x="673" 
d="M20 645v55h202v-55h-69v-344q0 -155 61 -206q29 -25 59 -34.5t70 -9.5q81 0 132.5 60t51.5 190v344h-66v55h192v-55h-63v-345q0 -157 -69 -230.5t-178 -73.5q-55 0 -96.5 11.5t-80.5 42.5q-81 63 -81 250v345h-65zM369 754l-46 -8l-118 148l60 7z" />
    <glyph glyph-name="Uacute" unicode="&#xda;" horiz-adv-x="673" 
d="M20 645v55h202v-55h-69v-344q0 -155 61 -206q29 -25 59 -34.5t70 -9.5q81 0 132.5 60t51.5 190v344h-66v55h192v-55h-63v-345q0 -157 -69 -230.5t-178 -73.5q-55 0 -96.5 11.5t-80.5 42.5q-81 63 -81 250v345h-65zM429 901l60 -7l-119 -148l-45 8z" />
    <glyph glyph-name="Ucircumflex" unicode="&#xdb;" horiz-adv-x="673" 
d="M20 645v55h202v-55h-69v-344q0 -155 61 -206q29 -25 59 -34.5t70 -9.5q81 0 132.5 60t51.5 190v344h-66v55h192v-55h-63v-345q0 -157 -69 -230.5t-178 -73.5q-55 0 -96.5 11.5t-80.5 42.5q-81 63 -81 250v345h-65zM177 779l167 161q158 -154 166 -161l-33 -29l-134 133
l-132 -133z" />
    <glyph glyph-name="Udieresis" unicode="&#xdc;" horiz-adv-x="673" 
d="M20 645v55h202v-55h-69v-344q0 -155 61 -206q29 -25 59 -34.5t70 -9.5q81 0 132.5 60t51.5 190v344h-66v55h192v-55h-63v-345q0 -157 -69 -230.5t-178 -73.5q-55 0 -96.5 11.5t-80.5 42.5q-81 63 -81 250v345h-65zM203.5 761.5q-10.5 11.5 -10.5 29.5t10.5 28.5t28 10.5
t28 -10.5t10.5 -29.5t-11 -29.5t-28 -10.5t-27.5 11.5zM419 761.5q-10 11.5 -10 29.5t10 28.5t27 10.5q40 0 40 -40q0 -19 -11 -29.5t-28.5 -10.5t-27.5 11.5z" />
    <glyph glyph-name="Yacute" unicode="&#xdd;" horiz-adv-x="682" 
d="M20 645v55h202v-55h-63l188 -353l179 353h-61v55h196v-55h-67l-215 -409v-181h72v-55h-200v55h65v181l-228 409h-68zM414 900l60 -7l-119 -148l-45 8z" />
    <glyph glyph-name="Thorn" unicode="&#xde;" horiz-adv-x="542" 
d="M51 668l1 32h131v-130h77q123 0 182.5 -42t59.5 -158.5t-61.5 -172t-180.5 -55.5h-77v-93l69 -4v-23l-1 -22l-200 -1q0 39 1 44l52 7q7 1 11 9v580q-4 9 -11 10l-53 6v13zM255 515h-72v-318h72q90 0 134.5 39.5t44.5 129t-44 119.5t-135 30z" />
    <glyph glyph-name="germandbls" unicode="&#xdf;" horiz-adv-x="656" 
d="M34 -1l1 34l52 7q7 1 9 10v397h-48l6 53h42v114q0 68 41.5 102t109.5 34t119 -42q25 -21 41 -55t16 -70q0 -58 -39.5 -94.5t-55.5 -59.5t-16 -55.5t28 -54t67.5 -32.5t79.5 -24t68 -43.5t28 -79.5q0 -68 -49.5 -106t-140.5 -38q-45 0 -90 10t-67 26l23 53
q13 -11 53 -21.5t60.5 -10.5h23.5q54 1 88 22t34 59.5t-28 59t-67.5 31.5t-79.5 24t-68 43t-28 70t13.5 63.5t39.5 52t40 51.5q21 25 21 54.5t-23 57.5q-42 53 -95 53q-35 0 -58.5 -25.5t-23.5 -71.5v-597h-6z" />
    <glyph glyph-name="agrave" unicode="&#xe0;" horiz-adv-x="539" 
d="M182 -4q-133 0 -141 105q-1 7 -1 14q0 84 101 112q56 14 216 32v77q0 109 -114 109q-82 -1 -174 -38l-17 43l10 4q78 34 119 41t60 7.5t36.5 -0.5t45.5 -9t48.5 -22.5t35.5 -43.5t15 -69v-308h77v-50h-132l-10 38q-90 -42 -175 -42zM200 42q76 0 157 34v143
q-150 -5 -194 -20q-34 -9 -48 -32.5t-14 -37.5v-19q3 -36 31 -52t68 -16zM276 603l-46 -8l-118 148l60 7z" />
    <glyph glyph-name="aacute" unicode="&#xe1;" horiz-adv-x="539" 
d="M182 -4q-133 0 -141 105q-1 7 -1 14q0 84 101 112q56 14 216 32v77q0 109 -114 109q-82 -1 -174 -38l-17 43l10 4q78 34 119 41t60 7.5t36.5 -0.5t45.5 -9t48.5 -22.5t35.5 -43.5t15 -69v-308h77v-50h-132l-10 38q-90 -42 -175 -42zM200 42q76 0 157 34v143
q-150 -5 -194 -20q-34 -9 -48 -32.5t-14 -37.5v-19q3 -36 31 -52t68 -16zM326 750l60 -7l-119 -148l-45 8z" />
    <glyph glyph-name="acircumflex" unicode="&#xe2;" horiz-adv-x="539" 
d="M182 -4q-133 0 -141 105q-1 7 -1 14q0 84 101 112q56 14 216 32v77q0 109 -114 109q-82 -1 -174 -38l-17 43l10 4q78 34 119 41t60 7.5t36.5 -0.5t45.5 -9t48.5 -22.5t35.5 -43.5t15 -69v-308h77v-50h-132l-10 38q-90 -42 -175 -42zM200 42q76 0 157 34v143
q-150 -5 -194 -20q-34 -9 -48 -32.5t-14 -37.5v-19q3 -36 31 -52t68 -16zM82 600l167 161q158 -154 166 -161l-33 -29l-134 133l-132 -133z" />
    <glyph glyph-name="atilde" unicode="&#xe3;" horiz-adv-x="539" 
d="M182 -4q-133 0 -141 105q-1 7 -1 14q0 84 101 112q56 14 216 32v77q0 109 -114 109q-82 -1 -174 -38l-17 43l10 4q78 34 119 41t60 7.5t36.5 -0.5t45.5 -9t48.5 -22.5t35.5 -43.5t15 -69v-308h77v-50h-132l-10 38q-90 -42 -175 -42zM200 42q76 0 157 34v143
q-150 -5 -194 -20q-34 -9 -48 -32.5t-14 -37.5v-19q3 -36 31 -52t68 -16zM144 655q34 0 101.5 -16.5t93.5 -16.5t35 9t13 30l35 -7q-9 -39 -26 -54.5t-43.5 -15.5t-100.5 19q-66 15 -102 15q-53 0 -60 -35l-34 7q13 65 88 65z" />
    <glyph glyph-name="adieresis" unicode="&#xe4;" horiz-adv-x="539" 
d="M182 -4q-133 0 -141 105q-1 7 -1 14q0 84 101 112q56 14 216 32v77q0 109 -114 109q-82 -1 -174 -38l-17 43l10 4q78 34 119 41t60 7.5t36.5 -0.5t45.5 -9t48.5 -22.5t35.5 -43.5t15 -69v-308h77v-50h-132l-10 38q-90 -42 -175 -42zM200 42q76 0 157 34v143
q-150 -5 -194 -20q-34 -9 -48 -32.5t-14 -37.5v-19q3 -36 31 -52t68 -16zM108.5 581.5q-10.5 11.5 -10.5 29.5t10.5 28.5t28 10.5t28 -10.5t10.5 -29.5t-11 -29.5t-28 -10.5t-27.5 11.5zM324 581.5q-10 11.5 -10 29.5t10 28.5t27 10.5q40 0 40 -40q0 -19 -11 -29.5
t-28.5 -10.5t-27.5 11.5z" />
    <glyph glyph-name="aring" unicode="&#xe5;" horiz-adv-x="462" 
d="M182 -4q-133 0 -141 105q-1 7 -1 14q0 84 101 112q56 14 216 32v77q0 109 -114 109q-82 -1 -174 -38l-17 43l10 4q78 34 119 41t60 7.5t36.5 -0.5t45.5 -9t48.5 -22.5t35.5 -43.5t15 -69v-308h77v-50h-132l-10 38q-90 -42 -175 -42zM200 42q76 0 157 34v143
q-150 -5 -194 -20q-34 -9 -48 -32.5t-14 -37.5v-19q3 -36 31 -52t68 -16zM198.5 604q-23.5 19 -23.5 56t25 60.5t59 23.5q85 0 85 -80q0 -33 -24.5 -56t-61 -23t-60 19zM224.5 700.5q-14.5 -15.5 -14.5 -38.5t13.5 -36t35 -13t36 15t14.5 38t-14 36.5t-35 13.5t-35.5 -15.5z
" />
    <glyph glyph-name="ae" unicode="&#xe6;" horiz-adv-x="721" 
d="M373 468q56 36 135 36t128.5 -52t49.5 -146q0 -20 -3 -43h-357q-1 -11 -1 -33q0 -176 168 -176q44 0 90 9.5t61 17.5l15 -53q-24 -13 -76.5 -22.5t-99.5 -9.5q-86 0 -139 36q-84 -36 -162 -36q-133 0 -141 105q-1 7 -1 14q0 84 101 112q25 6 119 20q4 107 61 176
q-27 22 -83.5 21.5t-132.5 -24.5l-4 -86l-49 -5v121l10 4q78 34 119 41q48 8 73 8q72 0 119 -35zM626 300q0 118 -86 137q-18 5 -34 5q-70 0 -114.5 -41t-58.5 -101h293zM163 199q-34 -9 -48 -32.5t-14 -37.5v-19q3 -36 31 -52t71.5 -16t108.5 18q-49 56 -52 154
q-68 -5 -97 -15z" />
    <glyph glyph-name="ccedilla" unicode="&#xe7;" horiz-adv-x="478" 
d="M300 446q-85 0 -137.5 -56.5t-52.5 -158.5q0 -177 165 -177q64 0 107 10.5t47 13.5l14 -47q-23 -15 -76 -25t-96 -10t-78 9t-70.5 32t-56.5 72.5t-21 120.5q0 131 67 198q75 77 189 77q36 0 76.5 -9.5t62.5 -29.5v-131l-49 -7l-5 105q-41 13 -86 13zM202 -118
q75 26 75 72q0 25 -7 46l35 6q8 -21 8 -38q0 -38 -29.5 -67.5t-71.5 -39.5z" />
    <glyph glyph-name="egrave" unicode="&#xe8;" 
d="M108 224q0 -89 51 -129.5t119 -40.5q44 0 90.5 8.5t61.5 15.5l13 -47q-23 -15 -75.5 -25t-96 -10t-78 9t-70.5 32t-57 72t-21 120q0 132 68 202q71 73 165 73t143.5 -52t49.5 -146q0 -20 -3 -43h-357q-3 -21 -3 -39zM411 313q0 62 -37 95.5t-86 33.5q-67 0 -111 -40.5
t-59 -99.5h293v11zM312 603l-46 -8l-118 148l60 7z" />
    <glyph glyph-name="eacute" unicode="&#xe9;" 
d="M108 224q0 -89 51 -129.5t119 -40.5q44 0 90.5 8.5t61.5 15.5l13 -47q-23 -15 -75.5 -25t-96 -10t-78 9t-70.5 32t-57 72t-21 120q0 132 68 202q71 73 165 73t143.5 -52t49.5 -146q0 -20 -3 -43h-357q-3 -21 -3 -39zM411 313q0 62 -37 95.5t-86 33.5q-67 0 -111 -40.5
t-59 -99.5h293v11zM387 750l60 -7l-119 -148l-45 8z" />
    <glyph glyph-name="ecircumflex" unicode="&#xea;" 
d="M108 224q0 -89 51 -129.5t119 -40.5q44 0 90.5 8.5t61.5 15.5l13 -47q-23 -15 -75.5 -25t-96 -10t-78 9t-70.5 32t-57 72t-21 120q0 132 68 202q71 73 165 73t143.5 -52t49.5 -146q0 -20 -3 -43h-357q-3 -21 -3 -39zM411 313q0 62 -37 95.5t-86 33.5q-67 0 -111 -40.5
t-59 -99.5h293v11zM125 600l167 161q158 -154 166 -161l-33 -29l-134 133l-132 -133z" />
    <glyph glyph-name="edieresis" unicode="&#xeb;" 
d="M108 224q0 -89 51 -129.5t119 -40.5q44 0 90.5 8.5t61.5 15.5l13 -47q-23 -15 -75.5 -25t-96 -10t-78 9t-70.5 32t-57 72t-21 120q0 132 68 202q71 73 165 73t143.5 -52t49.5 -146q0 -20 -3 -43h-357q-3 -21 -3 -39zM411 313q0 62 -37 95.5t-86 33.5q-67 0 -111 -40.5
t-59 -99.5h293v11zM157.5 581.5q-10.5 11.5 -10.5 29.5t10.5 28.5t28 10.5t28 -10.5t10.5 -29.5t-11 -29.5t-28 -10.5t-27.5 11.5zM373 581.5q-10 11.5 -10 29.5t10 28.5t27 10.5q40 0 40 -40q0 -19 -11 -29.5t-28.5 -10.5t-27.5 11.5z" />
    <glyph glyph-name="igrave" unicode="&#xec;" horiz-adv-x="286" 
d="M191 459v-419l75 -5v-18l-1 -17l-200 -1q0 29 1 34l52 7q8 1 8 14v390q0 11 -6 11l-60 2l1 34q54 9 82 9t38 -13t10 -28zM184 603l-46 -8l-118 148l60 7z" />
    <glyph glyph-name="iacute" unicode="&#xed;" horiz-adv-x="285" 
d="M191 459v-419l75 -5v-18l-1 -17l-200 -1q0 29 1 34l52 7q8 1 8 14v390q0 11 -6 11l-60 2l1 34q54 9 82 9t38 -13t10 -28zM215 750l60 -7l-119 -148l-45 8z" />
    <glyph glyph-name="icircumflex" unicode="&#xee;" horiz-adv-x="444" 
d="M261 459v-419l75 -5v-18l-1 -17l-200 -1q0 29 1 34l52 7q8 1 8 14v390q0 11 -6 11l-60 2l1 34q54 9 82 9t38 -13t10 -28zM60 600l167 161q158 -154 166 -161l-33 -29l-134 133l-132 -133z" />
    <glyph glyph-name="idieresis" unicode="&#xef;" horiz-adv-x="403" 
d="M241 459v-419l75 -5v-18l-1 -17l-200 -1q0 29 1 34l52 7q8 1 8 14v390q0 11 -6 11l-60 2l1 34q54 9 82 9t38 -13t10 -28zM70.5 581.5q-10.5 11.5 -10.5 29.5t10.5 28.5t28 10.5t28 -10.5t10.5 -29.5t-11 -29.5t-28 -10.5t-27.5 11.5zM286 581.5q-10 11.5 -10 29.5
t10 28.5t27 10.5q40 0 40 -40q0 -19 -11 -29.5t-28.5 -10.5t-27.5 11.5z" />
    <glyph glyph-name="eth" unicode="&#xf0;" horiz-adv-x="625" 
d="M550 270q0 -134 -68 -204t-173 -70t-169.5 60t-64.5 183.5t68.5 194t170.5 70.5q65 0 109 -33q-63 107 -176 174l-74 -96l-25 20l71 92q-51 26 -104 43l16 46q59 -24 115 -53l65 84l25 -20l-61 -80q275 -156 275 -411zM316 446q-76 0 -126 -54t-50 -146.5t47.5 -142
t123 -49.5t123.5 52t51 150q0 51 -15 106l-3 -3q-59 87 -151 87z" />
    <glyph glyph-name="ntilde" unicode="&#xf1;" horiz-adv-x="630" 
d="M50 450v50h132v-56q82 56 157 59q73 0 111 -29q17 -13 30.5 -40.5t13.5 -65.5v-318h77v-50h-202v50h60v293q0 97 -114 97q-62 -2 -133 -41v-349h75v-50h-202v50h62v400h-67zM212 669q34 0 101.5 -16.5t93.5 -16.5t35 9t13 30l35 -7q-9 -39 -26 -54.5t-43.5 -15.5
t-100.5 19q-66 15 -102 15q-53 0 -60 -35l-34 7q13 65 88 65z" />
    <glyph glyph-name="ograve" unicode="&#xf2;" horiz-adv-x="576" 
d="M110.5 56q-64.5 60 -64.5 183.5t68.5 194t172.5 70.5t169 -60t65 -183.5t-68.5 -194t-173 -70.5t-169 60zM161 392q-50 -54 -50 -146.5t47.5 -142t122.5 -49.5t125 53.5t50 146t-48 142.5t-122.5 50t-124.5 -54zM326 603l-46 -8l-118 148l60 7z" />
    <glyph glyph-name="oacute" unicode="&#xf3;" horiz-adv-x="576" 
d="M110.5 56q-64.5 60 -64.5 183.5t68.5 194t172.5 70.5t169 -60t65 -183.5t-68.5 -194t-173 -70.5t-169 60zM161 392q-50 -54 -50 -146.5t47.5 -142t122.5 -49.5t125 53.5t50 146t-48 142.5t-122.5 50t-124.5 -54zM404 750l60 -7l-119 -148l-45 8z" />
    <glyph glyph-name="ocircumflex" unicode="&#xf4;" horiz-adv-x="576" 
d="M110.5 56q-64.5 60 -64.5 183.5t68.5 194t172.5 70.5t169 -60t65 -183.5t-68.5 -194t-173 -70.5t-169 60zM161 392q-50 -54 -50 -146.5t47.5 -142t122.5 -49.5t125 53.5t50 146t-48 142.5t-122.5 50t-124.5 -54zM130 600l167 161q158 -154 166 -161l-33 -29l-134 133
l-132 -133z" />
    <glyph glyph-name="otilde" unicode="&#xf5;" horiz-adv-x="576" 
d="M110.5 56q-64.5 60 -64.5 183.5t68.5 194t172.5 70.5t169 -60t65 -183.5t-68.5 -194t-173 -70.5t-169 60zM161 392q-50 -54 -50 -146.5t47.5 -142t122.5 -49.5t125 53.5t50 146t-48 142.5t-122.5 50t-124.5 -54zM200 655q34 0 101.5 -16.5t93.5 -16.5t35 9t13 30l35 -7
q-9 -39 -26 -54.5t-43.5 -15.5t-100.5 19q-66 15 -102 15q-53 0 -60 -35l-34 7q13 65 88 65z" />
    <glyph glyph-name="odieresis" unicode="&#xf6;" horiz-adv-x="576" 
d="M110.5 56q-64.5 60 -64.5 183.5t68.5 194t172.5 70.5t169 -60t65 -183.5t-68.5 -194t-173 -70.5t-169 60zM161 392q-50 -54 -50 -146.5t47.5 -142t122.5 -49.5t125 53.5t50 146t-48 142.5t-122.5 50t-124.5 -54zM154.5 591.5q-10.5 11.5 -10.5 29.5t10.5 28.5t28 10.5
t28 -10.5t10.5 -29.5t-11 -29.5t-28 -10.5t-27.5 11.5zM370 591.5q-10 11.5 -10 29.5t10 28.5t27 10.5q40 0 40 -40q0 -19 -11 -29.5t-28.5 -10.5t-27.5 11.5z" />
    <glyph glyph-name="divide" unicode="&#xf7;" horiz-adv-x="768" 
d="M333 95q0 22 12 35.5t32 13.5q43 0 43 -49q0 -21 -12.5 -34t-30.5 -13q-44 0 -44 47zM333 418q0 22 12.5 36t31.5 14q43 0 43 -50q0 -21 -12.5 -33.5t-30.5 -12.5q-44 0 -44 46zM146 290h454v-58h-454v58z" />
    <glyph glyph-name="oslash" unicode="&#xf8;" horiz-adv-x="625" 
d="M131 64q-56 64 -56 181.5t68.5 188t173.5 70.5q84 0 141 -38l35 42l33 -22l-38 -46q62 -64 62 -183.5t-68.5 -190t-166.5 -70.5t-155 42l-36 -45l-32 24zM435 107.5q50 53.5 50 141t-40 138.5l-243 -298q44 -35 113.5 -35t119.5 53.5zM190 392q-50 -54 -50 -139.5
t35 -134.5l241 296q-43 32 -99 32q-77 0 -127 -54z" />
    <glyph glyph-name="ugrave" unicode="&#xf9;" horiz-adv-x="649" 
d="M448 58q-91 -61 -172 -61q-34 0 -80 17q-30 11 -48 41.5t-18 76.5v318h-70v50h135v-348q0 -35 15 -57.5t38 -29.5q38 -12 61 -10q60 1 139 43v352h-70v50h135v-450h77v-50h-132zM327 603l-46 -8l-118 148l60 7z" />
    <glyph glyph-name="uacute" unicode="&#xfa;" horiz-adv-x="649" 
d="M448 58q-91 -61 -172 -61q-34 0 -80 17q-30 11 -48 41.5t-18 76.5v318h-70v50h135v-348q0 -35 15 -57.5t38 -29.5q38 -12 61 -10q60 1 139 43v352h-70v50h135v-450h77v-50h-132zM398 752l60 -7l-119 -148l-45 8z" />
    <glyph glyph-name="ucircumflex" unicode="&#xfb;" horiz-adv-x="649" 
d="M448 58q-91 -61 -172 -61q-34 0 -80 17q-30 11 -48 41.5t-18 76.5v318h-70v50h135v-348q0 -35 15 -57.5t38 -29.5q38 -12 61 -10q60 1 139 43v352h-70v50h135v-450h77v-50h-132zM149 600l167 161q158 -154 166 -161l-33 -29l-134 133l-132 -133z" />
    <glyph glyph-name="udieresis" unicode="&#xfc;" horiz-adv-x="649" 
d="M448 58q-91 -61 -172 -61q-34 0 -80 17q-30 11 -48 41.5t-18 76.5v318h-70v50h135v-348q0 -35 15 -57.5t38 -29.5q38 -12 61 -10q60 1 139 43v352h-70v50h135v-450h77v-50h-132zM179.5 581.5q-10.5 11.5 -10.5 29.5t10.5 28.5t28 10.5t28 -10.5t10.5 -29.5t-11 -29.5
t-28 -10.5t-27.5 11.5zM395 581.5q-10 11.5 -10 29.5t10 28.5t27 10.5q40 0 40 -40q0 -19 -11 -29.5t-28.5 -10.5t-27.5 11.5z" />
    <glyph glyph-name="yacute" unicode="&#xfd;" horiz-adv-x="653" 
d="M429 450v50h184v-50h-60l-199 -450l-33 -199h84v-50h-211v50h62l31 199h-17l-162 450h-68v50h211v-50h-69l132 -403l170 403h-55zM419 750l60 -7l-119 -148l-45 8z" />
    <glyph glyph-name="thorn" unicode="&#xfe;" horiz-adv-x="570" 
d="M65 -250l1 34l52 7q9 1 9 14v892q-2 8 -6 8l-61 2l1 34q63 9 86.5 9t34 -13t10.5 -28v-246q63 46 134 46q68 0 128 -42q32 -23 51.5 -72t19.5 -119q0 -133 -66 -200q-75 -76 -194 -76q-35 0 -73 5v-214l85 -5l-1 -17v-18zM192 422v-366q29 -7 63 -7q99 0 152 58t53 164
q0 123 -72 161q-35 19 -81 19t-115 -29z" />
    <glyph glyph-name="ydieresis" unicode="&#xff;" horiz-adv-x="653" 
d="M429 450v50h184v-50h-60l-199 -450l-33 -199h84v-50h-211v50h62l31 199h-17l-162 450h-68v50h211v-50h-69l132 -403l170 403h-55zM187.5 581.5q-10.5 11.5 -10.5 29.5t10.5 28.5t28 10.5t28 -10.5t10.5 -29.5t-11 -29.5t-28 -10.5t-27.5 11.5zM403 581.5
q-10 11.5 -10 29.5t10 28.5t27 10.5q40 0 40 -40q0 -19 -11 -29.5t-28.5 -10.5t-27.5 11.5z" />
    <glyph glyph-name="dotlessi" unicode="&#x131;" horiz-adv-x="316" 
d="M191 459v-419l75 -5v-18l-1 -17l-200 -1q0 29 1 34l52 7q8 1 8 14v390q0 11 -6 11l-60 2l1 34q54 9 82 9t38 -13t10 -28z" />
    <glyph glyph-name="OE" unicode="&#x152;" horiz-adv-x="736" 
d="M585 438l46 2v-171q-1 0 -23 -1h-22l-4 49h-159v-257h209l15 120l49 -5l-15 -175h-296q-21 -4 -50 -4q-295 0 -295 352q0 163 84.5 259.5t210.5 96.5q19 0 59 -4h260l13 -144l-50 -8l-12 92h-182v-263h148q10 2 10 12zM335 56h20v587q-7 1 -20 1q-98 0 -162.5 -78.5
t-64.5 -215.5q0 -294 227 -294z" />
    <glyph glyph-name="oe" unicode="&#x153;" horiz-adv-x="783" 
d="M426 44q-63 -48 -157.5 -48t-159 60t-64.5 183.5t68.5 194t168 70.5t159.5 -48l-44 -50q-45 40 -116 40t-121 -54t-50 -146.5t47.5 -142t114.5 -49.5t113 35zM385 224q0 -89 51 -129.5t119 -40.5q44 0 90.5 8.5t61.5 15.5l13 -47q-23 -15 -75.5 -25t-96 -10t-78 9
t-70.5 32t-57 72t-21 120q0 132 68 202q71 73 165 73t143.5 -52t49.5 -146q0 -20 -3 -43h-357q-3 -21 -3 -39zM688 313q0 62 -37 95.5t-86 33.5q-67 0 -111 -40.5t-59 -99.5h293v11z" />
    <glyph glyph-name="Ydieresis" unicode="&#x178;" horiz-adv-x="682" 
d="M20 645v55h202v-55h-63l188 -353l179 353h-61v55h196v-55h-67l-215 -409v-181h72v-55h-200v55h65v181l-228 409h-68zM211.5 761.5q-10.5 11.5 -10.5 29.5t10.5 28.5t28 10.5t28 -10.5t10.5 -29.5t-11 -29.5t-28 -10.5t-27.5 11.5zM427 761.5q-10 11.5 -10 29.5t10 28.5
t27 10.5q40 0 40 -40q0 -19 -11 -29.5t-28.5 -10.5t-27.5 11.5z" />
    <glyph glyph-name="circumflex" unicode="&#x2c6;" horiz-adv-x="560" 
d="M116 600l167 161q158 -154 166 -161l-33 -29l-134 133l-132 -133z" />
    <glyph glyph-name="breve" unicode="&#x2d8;" horiz-adv-x="500" 
d="M110 700q0 -11 9 -27.5t23 -27.5t42 -19t47 -8t40.5 0.5t50.5 9t42 20.5q24 24 26 44v8h30q0 -39 -34 -70q-15 -15 -50 -27q-38 -13 -86 -13t-82 10.5t-50 27.5q-35 34 -37 60l-1 12h30z" />
    <glyph glyph-name="dotaccent" unicode="&#x2d9;" horiz-adv-x="261" 
d="M94 637q0 19 9.5 30t25.5 11q35 0 35 -41q0 -17 -10 -27t-25 -10q-35 0 -35 37z" />
    <glyph glyph-name="ring" unicode="&#x2da;" horiz-adv-x="300" 
d="M103.5 604q-23.5 19 -23.5 56t25 60.5t59 23.5q85 0 85 -80q0 -33 -24.5 -56t-61 -23t-60 19zM129.5 700.5q-14.5 -15.5 -14.5 -38.5t13.5 -36t35 -13t36 15t14.5 38t-14 36.5t-35 13.5t-35.5 -15.5z" />
    <glyph glyph-name="tilde" unicode="&#x2dc;" horiz-adv-x="588" 
d="M210 655q34 0 101.5 -16.5t93.5 -16.5t35 9t13 30l35 -7q-9 -39 -26 -54.5t-43.5 -15.5t-100.5 19q-66 15 -102 15q-53 0 -60 -35l-34 7q13 65 88 65z" />
    <glyph glyph-name="endash" unicode="&#x2013;" horiz-adv-x="601" 
d="M80 290h454v-58h-454v58z" />
    <glyph glyph-name="emdash" unicode="&#x2014;" horiz-adv-x="701" 
d="M80 290h554v-58h-554v58z" />
    <glyph glyph-name="quoteleft" unicode="&#x2018;" horiz-adv-x="200" 
d="M89 597q-10 60 -10 116l44 5q-1 -13 -1 -38v-40v-28l1 -11z" />
    <glyph glyph-name="quoteright" unicode="&#x2019;" horiz-adv-x="200" 
d="M80 636v32q0 34 -1 47l44 3q0 -14 -1 -28t-1.5 -25.5t-1.5 -21.5t-2 -18t-2 -13.5l-2 -11.5l-34 -2l1 11v27z" />
    <glyph glyph-name="quotesinglbase" unicode="&#x201a;" horiz-adv-x="200" 
d="M80 6v32q0 34 -1 47l44 3q0 -14 -1 -28t-1.5 -25.5t-1.5 -21.5t-2 -18t-2 -13.5l-2 -11.5l-34 -2l1 11v27z" />
    <glyph glyph-name="quotedblleft" unicode="&#x201c;" horiz-adv-x="300" 
d="M89 597q-10 60 -10 116l44 5q-1 -13 -1 -38v-40v-28l1 -11zM199 597q-10 60 -10 116l44 5q-1 -13 -1 -38v-40v-28l1 -11z" />
    <glyph glyph-name="quotedblright" unicode="&#x201d;" horiz-adv-x="300" 
d="M80 636v32q0 34 -1 47l44 3q0 -14 -1 -28t-1.5 -25.5t-1.5 -21.5t-2 -18t-2 -13.5l-2 -11.5l-34 -2l1 11v27zM190 636v32q0 34 -1 47l44 3q0 -14 -1 -28t-1.5 -25.5t-1.5 -21.5t-2 -18t-2 -13.5l-2 -11.5l-34 -2l1 11v27z" />
    <glyph glyph-name="quotedblbase" unicode="&#x201e;" horiz-adv-x="300" 
d="M80 6v32q0 34 -1 47l44 3q0 -14 -1 -28t-1.5 -25.5t-1.5 -21.5t-2 -18t-2 -13.5l-2 -11.5l-34 -2l1 11v27zM190 6v32q0 34 -1 47l44 3q0 -14 -1 -28t-1.5 -25.5t-1.5 -21.5t-2 -18t-2 -13.5l-2 -11.5l-34 -2l1 11v27z" />
    <glyph glyph-name="bullet" unicode="&#x2022;" horiz-adv-x="463" 
d="M139 327q-36 34 -36 94t37 98t91 38t90.5 -34.5t36.5 -94.5t-37.5 -97.5t-91.5 -37.5t-90 34z" />
    <glyph glyph-name="ellipsis" unicode="&#x2026;" horiz-adv-x="386" 
d="M29 29q0 19 9.5 30t25.5 11q35 0 35 -41q0 -17 -10 -27t-25 -10q-35 0 -35 37zM155 29q0 19 9.5 30t25.5 11q36 0 36 -41q0 -17 -10.5 -27t-25.5 -10q-35 0 -35 37zM279 29q0 19 9.5 30t25.5 11q36 0 36 -41q0 -17 -10.5 -27t-25.5 -10q-35 0 -35 37z" />
    <glyph glyph-name="perthousand" unicode="&#x2030;" horiz-adv-x="982" 
d="M516 520h60l-396 -520h-60zM80 400q0 49 35 84.5t85 35.5q120 0 120 -120q0 -50 -35.5 -85t-84.5 -35q-120 0 -120 120zM143 458q-23 -24 -23 -61t22 -58t56.5 -21t58 24t23.5 61t-22.5 58t-57 21t-57.5 -24zM370 115q0 49 35 84.5t85 35.5q120 0 120 -120
q0 -50 -35.5 -85t-84.5 -35q-120 0 -120 120zM433 173q-23 -24 -23 -61t22 -58t56.5 -21t58 24t23.5 61t-22.5 58t-57 21t-57.5 -24zM657 115q0 49 35 84.5t85 35.5q120 0 120 -120q0 -50 -35.5 -85t-84.5 -35q-120 0 -120 120zM720.5 173q-23.5 -24 -23.5 -61t22.5 -58
t56.5 -21t57.5 24t23.5 61t-22.5 58t-56.5 21t-57.5 -24z" />
    <glyph glyph-name="guilsinglleft" unicode="&#x2039;" horiz-adv-x="436" 
d="M344 136v-48l-269 171l269 171v-48l-204 -123z" />
    <glyph glyph-name="guilsinglright" unicode="&#x203a;" horiz-adv-x="436" 
d="M75 88v48l204 123l-204 123v48l269 -171z" />
    <glyph glyph-name="fraction" unicode="&#x2044;" horiz-adv-x="600" 
d="M430 749h60l-318 -949h-60z" />
    <glyph glyph-name="Euro" unicode="&#x20ac;" horiz-adv-x="642" 
d="M53 256h40q-2 28 -2 50t3 49h-36v28h40q19 104 83 158q76 64 177 64q55 0 102 -15t68 -39l-26 -40q-12 13 -52 26t-86 13q-76 0 -128.5 -41.5t-69.5 -125.5h274v-28h-279q-3 -25 -3 -55t2 -44h280v-28h-276q15 -91 68.5 -134.5t131.5 -43.5q47 0 90.5 14.5t56.5 27.5
l23 -42q-25 -27 -76.5 -41t-82.5 -14t-46 1q-55 6 -101 29t-83 75t-49 128h-43v28z" />
    <glyph glyph-name="trademark" unicode="&#x2122;" horiz-adv-x="441" 
d="M415 700q1 -12 1 -13l-15 -1l-4 -4v-168l21 -1v-13h-57v12l15 2q3 2 3 4v148l-64 -129h-21l-65 131v-153l23 -2v-13h-57v12l15 2h1v171l-1 1l-15 1v13h36l74 -147l73 147h37zM79 518v165h-42l-3 -26l-14 2l3 41h131l4 -41l-14 -2l-3 26h-44v-169l21 -2l-1 -12l-57 -1
q0 11 1 13l15 2q3 0 3 4z" />
    <glyph glyph-name="lozenge" unicode="&#x25ca;" horiz-adv-x="833" 
d="M248 400l111 300h13l110 -300l-110 -300h-13zM468 400l-104 285l-105 -285l105 -286z" />
    <glyph glyph-name="CR" horiz-adv-x="299" 
 />
    <glyph glyph-name="Etilde" horiz-adv-x="20" 
 />
    </font>
</defs>
</svg>
